<svg width="47" height="47" viewBox="0 0 47 47" fill="none" xmlns="http://www.w3.org/2000/svg">
<rect x="0.505249" y="0.778076" width="45.67" height="45.6684" rx="17" fill="#53B175"/>
<path d="M31.8402 23.6123C31.8402 23.9881 31.6961 24.3514 31.4266 24.6145C31.1635 24.8839 30.8 25.0342 30.4241 25.0342H24.7595V30.6967C24.7595 31.0725 24.6091 31.4358 24.3397 31.6989C24.0765 31.962 23.7193 32.1123 23.3433 32.1123C22.9674 32.1123 22.6039 31.962 22.3408 31.6989C22.0713 31.4358 21.9209 31.0725 21.9209 30.6967V25.0342H16.2564C15.8804 25.0342 15.517 24.8839 15.2538 24.6145C14.9906 24.3514 14.8402 23.9881 14.8402 23.6123C14.8402 23.2365 14.9906 22.8794 15.2538 22.6101C15.517 22.347 15.8804 22.1967 16.2564 22.1967H21.9209V16.5342C21.9209 16.1584 22.0713 15.7951 22.3408 15.532C22.6039 15.2626 22.9674 15.1123 23.3433 15.1123C23.7193 15.1123 24.0765 15.2626 24.3397 15.532C24.6091 15.7951 24.7595 16.1584 24.7595 16.5342V22.1967H30.4241C30.8 22.1967 31.1635 22.347 31.4266 22.6101C31.6961 22.8794 31.8402 23.2365 31.8402 23.6123Z" fill="white"/>
</svg>
